<?xml version="1.0" standalone="no"?>
<!DOCTYPE svg PUBLIC "-//W3C//DTD SVG 20010904//EN"
 "http://www.w3.org/TR/2001/REC-SVG-20010904/DTD/svg10.dtd">
<svg version="1.0" xmlns="http://www.w3.org/2000/svg"
 width="1697.000000pt" height="1697.000000pt" viewBox="0 0 1697.000000 1697.000000"
 preserveAspectRatio="xMidYMid meet">
<metadata>
Created by potrace 1.14, written by Peter Selinger 2001-2017
</metadata>
<g transform="translate(0.000000,1697.000000) scale(0.100000,-0.100000)"
fill="#000000" stroke="none">
<path d="M7860 16530 c-203 -17 -519 -57 -670 -85 -258 -48 -361 -71 -555
-122 -972 -255 -1896 -744 -2635 -1392 -165 -145 -421 -402 -570 -571 -741
-841 -1235 -1890 -1399 -2970 -53 -351 -56 -391 -56 -865 0 -477 8 -580 65
-925 177 -1062 658 -2074 1373 -2890 556 -634 1193 -1124 1957 -1506 346 -172
676 -302 1090 -429 209 -64 646 -161 885 -195 410 -60 636 -73 1128 -67 476 6
665 23 1117 102 265 46 643 144 930 242 1472 497 2696 1480 3449 2768 81 137
254 476 300 585 13 30 37 87 53 125 214 507 363 1108 413 1665 20 223 20 827
0 1050 -125 1397 -794 2747 -1853 3737 -837 782 -1849 1317 -3002 1588 -238
55 -463 93 -780 131 -197 24 -255 26 -675 29 -253 2 -507 -1 -565 -5z m1520
-1389 c223 -17 264 -22 297 -37 17 -8 67 -17 110 -20 79 -6 253 -51 253 -66 0
-4 13 -5 30 -2 16 4 36 2 42 -4 13 -10 81 -27 203 -52 33 -7 71 -17 85 -23 14
-6 27 -11 30 -11 3 -1 10 -4 15 -7 6 -4 51 -19 100 -34 103 -31 318 -119 356
-146 14 -10 38 -21 55 -25 16 -3 56 -21 89 -39 99 -53 238 -128 262 -139 13
-6 23 -14 23 -18 0 -5 7 -8 15 -8 9 0 18 -7 21 -15 4 -8 10 -12 15 -9 5 3 9 0
9 -5 0 -6 5 -11 11 -11 5 0 36 -18 68 -40 32 -21 61 -36 65 -33 3 4 6 2 6 -4
0 -6 19 -23 43 -39 23 -16 47 -32 52 -37 6 -4 39 -28 75 -54 36 -25 108 -83
160 -128 52 -45 113 -93 135 -107 47 -30 325 -310 325 -328 0 -6 24 -37 53
-68 87 -94 236 -288 237 -308 0 -6 11 -23 25 -38 13 -14 22 -26 19 -26 -3 0
17 -29 46 -65 28 -35 49 -69 45 -75 -3 -5 -1 -10 5 -10 6 0 24 -28 40 -62 39
-83 119 -231 129 -238 4 -3 22 -40 41 -82 18 -43 38 -78 42 -78 5 0 7 -4 4 -9
-4 -5 -2 -11 3 -13 5 -1 25 -52 44 -113 20 -60 48 -141 62 -180 31 -82 67
-209 70 -246 1 -14 5 -31 9 -38 4 -6 5 -18 2 -26 -3 -8 -2 -15 3 -15 13 0 21
-42 32 -155 13 -144 20 -198 25 -215 7 -19 7 -281 0 -300 -5 -16 -10 -64 -25
-240 -10 -119 -34 -230 -52 -241 -6 -3 -10 -24 -9 -45 2 -22 0 -46 -3 -54 -23
-63 -36 -112 -42 -150 -3 -25 -14 -63 -24 -85 -10 -22 -33 -89 -51 -150 -19
-60 -40 -116 -47 -123 -7 -7 -16 -25 -19 -40 -4 -15 -31 -68 -60 -119 -30 -50
-54 -95 -54 -100 0 -5 -12 -25 -26 -44 -14 -19 -38 -59 -53 -89 -15 -30 -44
-73 -64 -94 -20 -22 -37 -44 -37 -49 0 -19 -185 -229 -317 -358 -115 -114
-239 -219 -257 -219 -2 0 -18 -13 -36 -30 -18 -16 -36 -30 -41 -30 -5 0 -48
-25 -94 -55 -47 -30 -91 -55 -98 -55 -7 0 -23 -9 -35 -20 -12 -12 -22 -18 -22
-14 0 4 -8 0 -18 -9 -14 -13 -141 -77 -162 -82 -3 -1 -22 -9 -42 -18 -53 -22
-179 -57 -211 -57 -14 0 -29 -5 -32 -10 -4 -6 -11 -7 -17 -4 -6 4 -14 1 -18
-7 -14 -22 -76 -13 -127 18 -91 56 -69 94 104 179 62 31 160 85 218 120 59 35
109 64 112 64 3 0 14 11 24 24 10 13 51 43 91 66 117 70 508 470 508 520 0 5
9 14 20 20 11 6 20 17 20 25 0 8 6 18 14 22 8 4 15 11 15 15 1 5 16 32 34 60
19 29 42 69 53 88 10 19 22 37 25 40 3 3 11 20 17 38 6 18 21 46 32 62 12 17
18 34 15 40 -3 5 -2 10 4 10 6 0 23 39 37 88 15 48 31 88 35 90 4 2 6 9 3 17
-3 7 -1 16 4 19 5 3 7 17 4 31 -3 16 0 25 8 25 8 0 11 9 8 25 -3 14 -1 28 3
31 5 3 9 28 9 55 0 27 7 66 16 87 9 20 20 84 24 142 5 60 13 106 19 108 8 3
11 70 11 217 0 169 -3 219 -15 241 -9 19 -15 57 -15 107 0 49 -6 92 -16 115
-9 20 -17 68 -19 107 -2 38 -8 71 -14 73 -5 2 -7 10 -4 18 3 8 0 14 -7 14 -7
0 -10 7 -7 15 4 8 2 17 -3 20 -6 4 -10 18 -10 33 0 35 -33 156 -56 207 -10 22
-17 46 -15 53 1 6 -2 12 -7 12 -6 0 -13 12 -17 28 -8 33 -47 116 -57 120 -4 2
-4 10 -1 18 3 8 0 14 -6 14 -6 0 -10 3 -9 8 3 14 -62 142 -73 142 -5 0 -7 5
-4 10 3 6 1 10 -5 10 -6 0 -8 5 -5 10 3 6 2 10 -2 10 -5 0 -22 30 -38 68 -16
37 -39 78 -52 92 -13 14 -23 29 -23 34 0 12 -85 130 -147 204 -29 35 -60 78
-67 95 -8 18 -112 131 -232 252 -263 264 -306 305 -321 305 -6 0 -21 12 -33
27 -12 15 -36 36 -55 48 -19 11 -67 45 -107 76 -40 31 -77 58 -83 60 -5 2 -22
15 -37 29 -24 22 -136 87 -215 124 -13 6 -23 14 -23 19 0 4 -6 7 -14 7 -8 0
-16 3 -18 8 -1 4 -41 25 -88 46 -47 21 -87 42 -90 46 -5 6 -193 88 -220 95 -3
0 -18 8 -35 17 -16 8 -46 19 -65 23 -19 4 -56 19 -83 33 -26 14 -50 22 -54 19
-3 -4 -11 -3 -17 2 -6 5 -58 24 -116 41 -58 18 -106 37 -108 41 -2 5 -15 6
-28 3 -13 -3 -31 -1 -39 6 -8 6 -19 9 -25 5 -5 -3 -10 -2 -10 3 0 12 -69 32
-112 32 -35 0 -141 17 -168 28 -8 3 -17 6 -20 7 -3 1 -13 5 -22 9 -9 4 -44 6
-78 4 -33 -1 -60 0 -60 5 0 4 -17 7 -39 7 -21 0 -58 7 -81 15 -34 12 -101 15
-342 15 -243 0 -305 -3 -335 -15 -19 -8 -52 -15 -73 -15 -20 0 -40 -3 -43 -7
-4 -3 -38 -5 -77 -4 -38 1 -75 -1 -82 -6 -7 -4 -15 -8 -18 -9 -3 0 -18 -6 -33
-12 -16 -7 -63 -16 -106 -21 -43 -4 -87 -13 -99 -20 -11 -6 -32 -11 -46 -11
-14 0 -26 -5 -26 -11 0 -7 -10 -9 -25 -5 -16 4 -25 2 -25 -5 0 -6 -6 -9 -14
-6 -8 3 -16 2 -18 -3 -3 -9 -97 -44 -159 -60 -20 -5 -56 -21 -80 -35 -24 -13
-52 -25 -61 -25 -16 0 -46 -13 -213 -90 -33 -15 -70 -31 -82 -35 -13 -3 -23
-11 -23 -17 0 -5 -7 -7 -15 -4 -9 3 -18 -1 -21 -9 -4 -8 -11 -15 -16 -15 -6 0
-31 -15 -57 -33 -25 -18 -61 -40 -78 -48 -18 -7 -33 -17 -33 -21 0 -5 -5 -8
-12 -8 -6 0 -34 -17 -62 -39 -28 -21 -64 -47 -81 -57 -16 -10 -35 -26 -42 -34
-7 -8 -13 -11 -13 -5 0 5 -7 -1 -16 -13 -8 -12 -20 -22 -26 -22 -6 0 -21 -10
-33 -22 -35 -35 -53 -48 -66 -48 -16 0 -483 -465 -500 -498 -8 -15 -20 -31
-27 -35 -7 -5 -10 -12 -7 -17 3 -4 -11 -20 -30 -34 -19 -15 -35 -33 -35 -41 0
-7 -13 -23 -30 -35 -16 -12 -30 -27 -30 -35 0 -7 -21 -41 -46 -75 -25 -34 -54
-79 -66 -101 -11 -21 -24 -39 -30 -39 -5 0 -6 -4 -3 -10 3 -5 -3 -15 -15 -22
-11 -7 -20 -18 -20 -24 0 -6 -11 -27 -24 -47 -13 -19 -22 -38 -18 -41 3 -3 0
-6 -7 -6 -7 0 -9 -4 -6 -10 3 -5 1 -10 -5 -10 -7 0 -10 -7 -6 -15 3 -8 2 -15
-2 -15 -9 0 -65 -110 -123 -240 -19 -41 -37 -76 -41 -78 -3 -2 -19 -42 -34
-90 -15 -48 -31 -88 -35 -90 -4 -2 -6 -9 -3 -17 3 -7 0 -24 -7 -37 -7 -13 -14
-25 -14 -28 -1 -3 -7 -18 -13 -33 -7 -16 -12 -37 -12 -48 0 -11 -11 -52 -25
-91 -54 -154 -84 -288 -121 -536 -9 -65 -23 -275 -24 -359 0 -50 -3 -94 -8
-97 -7 -4 -2 -71 15 -201 13 -98 12 -100 -60 -63 -112 56 -201 121 -289 211
-49 48 -88 86 -88 83 0 -20 80 -117 165 -202 l103 -102 -57 25 c-134 58 -229
117 -319 198 -56 50 -65 52 -31 5 48 -65 181 -157 375 -260 111 -59 150 -83
180 -111 28 -26 27 -5 9 -249 -8 -108 -18 -158 -40 -196 -47 -81 -164 -213
-378 -428 -231 -232 -277 -291 -277 -361 0 -80 58 -136 259 -250 157 -88 212
-137 234 -206 34 -105 19 -178 -61 -296 -54 -80 -72 -117 -72 -149 0 -54 68
-123 179 -180 l54 -28 -34 -26 c-85 -63 -121 -127 -104 -180 4 -12 58 -75 120
-139 101 -106 116 -125 131 -177 19 -67 15 -107 -31 -274 -44 -160 -23 -259
82 -385 121 -145 302 -226 501 -224 82 0 106 5 354 63 198 46 338 60 353 35 4
-6 14 -8 23 -4 8 3 18 1 22 -5 3 -6 33 -15 66 -21 120 -21 186 -40 268 -79 46
-22 86 -47 90 -55 3 -9 10 -13 16 -10 5 3 10 1 10 -4 0 -6 7 -11 15 -11 8 0
15 -4 15 -10 0 -5 5 -10 12 -10 16 0 58 -40 58 -56 0 -6 7 -15 16 -18 9 -4 14
-9 11 -12 -3 -4 3 -14 14 -23 21 -17 54 -73 95 -161 15 -30 35 -74 46 -97 12
-25 17 -50 13 -62 -4 -13 -2 -21 5 -21 7 0 10 -8 7 -20 -3 -11 -1 -20 3 -20 5
0 15 -31 24 -68 8 -37 23 -86 32 -107 10 -22 16 -55 15 -72 -1 -18 1 -38 5
-45 8 -13 56 -144 75 -208 6 -19 15 -40 20 -45 4 -6 12 -31 18 -56 6 -24 22
-71 38 -104 15 -33 27 -64 28 -70 0 -5 2 -12 5 -15 8 -7 60 -173 60 -190 0 -9
7 -26 16 -38 8 -12 12 -27 9 -32 -3 -6 -1 -10 4 -10 6 0 11 -5 11 -11 0 -19
-256 12 -625 76 -103 18 -414 90 -462 107 -28 10 -35 20 -48 64 -8 29 -20 56
-25 59 -5 3 -7 12 -4 19 3 8 1 17 -4 20 -6 3 -8 15 -5 26 3 11 0 26 -6 34 -11
13 -21 53 -40 162 -5 28 -16 67 -25 88 -8 20 -14 38 -13 40 1 1 -4 10 -11 19
-8 9 -11 20 -8 26 3 5 3 11 -2 13 -4 1 -21 56 -36 121 -16 64 -33 117 -39 117
-5 0 -7 9 -4 20 3 11 2 20 -2 20 -4 0 -16 28 -26 63 -11 34 -32 87 -49 117
-16 30 -35 67 -43 81 -7 14 -24 38 -38 53 -13 14 -21 26 -17 26 12 0 -83 91
-118 113 -19 11 -37 23 -40 27 -10 10 -108 60 -120 60 -6 0 -18 7 -26 15 -23
23 -112 45 -182 45 -35 0 -87 7 -116 17 -28 9 -58 18 -66 20 -8 3 -80 4 -161
3 -113 -1 -152 3 -175 15 -16 8 -47 15 -69 15 -47 0 -130 28 -177 61 -30 20
-89 76 -87 82 1 1 -7 20 -17 42 -26 58 -26 224 0 280 11 22 18 44 17 49 -1 4
3 14 9 22 7 7 10 23 9 36 -2 13 -1 28 3 33 20 32 38 129 38 201 0 74 -3 86
-26 113 -14 17 -32 31 -40 31 -8 0 -14 4 -14 8 0 4 -23 16 -52 27 -56 20 -124
80 -134 119 -13 54 18 105 120 192 66 57 38 118 -68 149 -31 9 -56 21 -56 26
0 6 -5 7 -11 4 -14 -9 -82 37 -113 78 -25 33 -35 77 -17 77 5 0 14 15 21 33 6
17 19 48 27 67 18 39 33 170 20 170 -4 0 -7 6 -5 13 2 14 -27 74 -50 100 -8 9
-12 17 -9 17 10 0 -76 76 -100 89 -25 13 -93 15 -93 3 0 -9 -2 -10 -72 -18
-34 -4 -48 -2 -48 6 0 7 -6 10 -14 7 -18 -7 -92 56 -102 86 -4 12 -7 30 -5 40
1 9 -3 17 -9 17 -6 0 -10 8 -9 18 1 9 -2 25 -6 36 -5 11 -3 21 4 25 6 4 9 15
6 23 -4 9 -2 19 4 23 6 3 11 19 11 34 0 36 34 152 64 216 13 28 29 66 37 85 7
19 27 60 43 90 16 30 39 75 52 100 13 25 28 50 33 56 5 7 7 15 4 18 -4 3 0 6
7 6 7 0 11 3 7 6 -3 4 7 26 24 50 17 24 37 60 45 79 8 19 19 35 24 35 6 0 10
5 10 11 0 13 125 195 140 204 6 4 8 11 5 16 -4 5 -1 9 5 9 6 0 8 5 5 10 -3 6
-1 10 5 10 24 0 40 69 40 174 0 100 -12 156 -33 156 -5 0 -7 7 -3 15 3 8 1 15
-5 15 -6 0 -9 6 -7 12 3 7 -8 30 -24 52 -15 21 -28 46 -28 55 0 9 -7 27 -16
39 -8 12 -12 22 -8 22 5 0 3 5 -4 12 -13 13 -17 100 -5 112 4 4 6 23 4 42 -1
20 4 50 12 67 9 20 17 82 20 167 4 74 13 162 22 195 9 33 18 96 21 140 3 44 8
87 11 95 4 8 5 19 4 24 -1 4 4 14 10 22 7 8 9 17 6 20 -3 4 0 13 8 21 10 9 15
34 15 68 0 29 9 82 20 117 11 34 20 77 20 94 0 16 4 34 8 40 11 12 37 101 57
195 9 42 22 85 30 96 8 11 28 63 45 116 17 53 35 99 41 102 5 4 7 11 4 16 -4
5 -1 9 5 9 7 0 10 7 6 15 -3 8 -2 15 2 15 8 0 25 45 48 125 8 28 22 61 32 75
11 14 25 43 32 65 15 47 47 113 65 135 6 8 20 35 29 60 10 25 38 77 62 116 24
39 44 75 44 81 0 5 13 28 28 49 16 21 39 59 53 83 13 25 34 56 46 69 12 13 28
37 35 53 7 16 16 29 20 29 5 0 8 7 8 15 0 8 9 19 20 25 11 6 18 15 15 19 -2 5
3 15 12 22 17 14 133 166 133 174 0 3 23 29 51 57 60 62 70 73 89 111 18 37
305 317 324 317 8 0 28 16 43 35 15 19 33 35 39 35 6 0 27 17 46 38 32 33 209
162 223 162 3 0 63 40 133 88 70 48 163 108 207 133 107 61 270 139 290 139 9
0 18 7 21 15 4 8 10 12 15 9 5 -3 9 0 9 6 0 6 5 8 10 5 6 -3 10 -1 10 5 0 6 6
10 13 8 6 -1 31 8 54 20 23 12 49 22 56 22 8 0 27 10 43 23 16 12 30 21 31 20
3 -3 6 -2 97 32 37 14 77 25 87 25 11 0 19 5 19 11 0 6 7 8 16 5 9 -4 23 -1
32 6 8 7 17 12 18 11 2 -1 19 4 38 12 20 8 48 15 63 15 31 0 143 29 159 42 6
4 19 6 28 2 9 -3 16 -1 16 4 0 6 17 14 38 17 20 4 56 13 79 21 23 9 90 22 149
29 58 8 111 19 118 24 12 10 51 14 331 35 203 15 564 13 775 -3z m75 -1702
c25 -6 45 -15 45 -20 0 -5 7 -6 15 -3 8 4 15 1 15 -6 0 -6 12 -11 28 -10 15 1
29 1 32 0 24 -8 153 -43 185 -50 22 -5 59 -18 82 -29 23 -12 49 -21 58 -21 9
0 33 -9 55 -20 22 -11 45 -20 52 -20 7 0 40 -14 73 -30 33 -17 67 -30 76 -30
9 0 33 -11 53 -25 20 -14 69 -41 109 -62 84 -43 197 -114 247 -155 42 -35 41
-34 110 -79 112 -74 490 -465 490 -506 0 -7 3 -13 8 -13 4 0 16 -16 26 -34 10
-19 42 -68 72 -108 29 -40 50 -76 48 -80 -3 -4 6 -23 19 -40 13 -18 35 -55 48
-83 13 -27 28 -53 34 -57 7 -5 7 -8 0 -8 -6 0 -5 -4 1 -8 9 -5 67 -117 79
-152 1 -3 4 -12 7 -20 3 -8 11 -31 17 -50 7 -19 21 -60 31 -90 10 -30 25 -70
35 -88 9 -17 15 -44 14 -60 -1 -15 6 -45 15 -67 11 -24 21 -84 26 -150 5 -61
14 -111 20 -113 5 -2 7 -8 4 -14 -4 -6 0 -14 7 -19 11 -7 14 -52 14 -229 0
-177 -3 -222 -14 -229 -7 -5 -10 -14 -6 -20 4 -7 1 -18 -5 -26 -7 -8 -10 -24
-7 -35 3 -11 1 -20 -4 -20 -5 0 -9 -30 -9 -67 0 -70 -36 -201 -64 -233 -8 -8
-28 -43 -45 -77 -17 -35 -36 -63 -43 -63 -6 0 -9 -3 -5 -6 3 -4 -20 -37 -51
-74 -31 -38 -66 -86 -77 -107 -20 -39 -107 -133 -123 -133 -4 0 -21 -13 -36
-29 l-28 -30 -39 25 c-22 13 -39 22 -39 20 0 -2 -44 14 -97 36 -54 22 -111 44
-128 49 -16 4 -52 15 -80 23 -114 32 -211 59 -230 61 -11 2 -56 8 -100 15
-129 20 -257 31 -368 32 -39 0 -89 12 -155 35 -53 19 -106 36 -117 37 -11 2
-38 11 -59 20 -21 9 -45 16 -52 16 -8 0 -33 8 -57 18 -23 11 -69 27 -102 37
-33 9 -71 22 -85 28 -14 5 -65 24 -115 42 -49 17 -108 42 -130 56 -22 13 -42
24 -45 24 -4 0 -18 8 -95 57 -11 7 -38 27 -59 43 -22 17 -54 39 -72 50 -38 24
-137 99 -179 136 -52 45 -141 122 -191 163 -50 42 -164 119 -164 111 0 -3 -17
2 -37 11 -21 8 -60 18 -88 21 -80 10 -262 6 -318 -7 -237 -52 -274 -66 -445
-169 -111 -67 -187 -108 -192 -102 -8 10 -37 11 -254 11 -124 0 -226 -5 -250
-11 -23 -7 -50 -13 -61 -14 -160 -22 -255 -59 -255 -100 0 -20 6 -24 43 -27
69 -8 177 -32 177 -40 0 -5 8 -8 18 -8 29 0 183 -41 227 -60 22 -9 72 -30 110
-45 39 -16 77 -34 86 -42 8 -7 21 -13 27 -13 6 0 26 -9 44 -20 18 -11 42 -20
54 -20 45 0 154 -145 185 -247 12 -37 29 -84 39 -103 10 -19 26 -57 35 -85 34
-102 40 -115 52 -115 7 0 13 -4 13 -8 0 -5 16 -16 35 -25 21 -10 40 -28 45
-44 6 -16 19 -44 30 -64 11 -20 20 -44 20 -52 0 -8 7 -28 15 -44 16 -31 55
-159 55 -180 0 -7 4 -21 10 -31 13 -22 39 -96 51 -145 5 -21 13 -45 18 -55 5
-9 19 -46 31 -82 21 -61 36 -97 95 -223 14 -30 25 -57 25 -61 0 -9 71 -128 81
-136 4 -3 15 -23 27 -45 11 -22 33 -54 48 -71 16 -17 46 -50 67 -73 39 -44
260 -231 273 -231 4 0 25 -15 48 -33 23 -18 63 -46 90 -63 91 -54 141 -83 172
-98 18 -8 49 -25 70 -38 21 -12 44 -23 52 -24 8 -2 31 -14 53 -28 21 -14 43
-26 49 -26 6 0 29 -9 52 -21 22 -11 49 -22 60 -24 10 -2 33 -11 51 -20 18 -9
41 -18 52 -21 19 -4 77 -22 160 -50 23 -8 50 -14 61 -14 12 0 43 -12 70 -26
46 -25 126 -52 219 -75 22 -5 47 -12 55 -16 8 -3 18 -7 22 -7 3 -1 9 -4 13 -8
4 -4 14 -4 22 -1 8 3 24 1 36 -5 54 -27 146 -52 192 -52 31 0 66 -8 89 -20 69
-35 170 -42 556 -38 319 3 369 5 398 20 18 9 67 22 110 28 67 10 153 30 202
48 8 3 21 4 28 3 6 -1 12 3 12 10 0 6 8 9 20 6 11 -3 23 -1 26 5 3 5 12 7 20
4 8 -3 14 -2 14 3 0 4 37 17 83 29 45 11 96 26 112 33 17 7 32 13 35 14 3 1
16 6 30 12 14 6 52 20 85 33 79 29 105 42 105 52 0 4 6 8 13 8 18 0 140 61
149 74 5 7 8 7 8 1 0 -6 3 -5 8 1 4 6 32 24 62 39 30 15 62 33 70 40 8 8 40
26 70 41 30 15 88 51 127 81 40 29 77 53 83 53 5 0 10 4 10 9 0 5 17 19 38 32
20 12 66 48 102 79 36 31 92 77 125 102 73 57 345 323 441 433 38 44 90 109
114 145 25 36 51 69 58 73 6 4 12 12 12 18 0 5 18 34 40 63 22 29 40 57 40 62
0 11 72 118 83 122 4 2 7 10 7 18 0 7 21 46 46 85 25 40 48 79 52 88 3 9 19
39 35 66 16 28 29 52 29 55 0 3 9 22 19 42 10 21 19 41 19 46 0 5 10 31 22 58
12 27 23 56 24 64 3 17 37 105 67 170 12 25 22 50 23 55 0 6 4 17 7 25 20 48
37 109 37 132 0 30 19 78 31 78 4 0 5 9 2 20 -3 11 -1 20 4 20 5 0 7 18 5 40
-2 22 0 46 5 53 23 29 36 90 43 213 8 124 23 204 42 231 5 6 8 50 7 98 -1 47
1 88 5 92 8 8 8 118 0 126 -4 3 -6 31 -6 62 0 31 2 59 6 62 9 9 7 151 -2 157
-5 3 -6 20 -4 38 l6 33 8 -35 c9 -36 30 -208 49 -390 14 -136 14 -794 0 -930
-20 -195 -40 -345 -55 -425 -9 -44 -21 -111 -27 -150 -13 -79 -115 -471 -128
-495 -5 -9 -14 -42 -22 -73 -7 -32 -16 -60 -21 -63 -4 -3 -8 -12 -8 -21 0 -14
-13 -49 -45 -118 -8 -16 -17 -43 -21 -60 -4 -16 -12 -41 -19 -55 -7 -14 -19
-41 -27 -60 -8 -19 -25 -56 -37 -81 -11 -25 -21 -50 -21 -54 0 -8 -60 -140
-86 -190 -42 -78 -74 -142 -84 -165 -6 -14 -19 -38 -30 -55 -10 -16 -33 -57
-50 -90 -51 -95 -144 -252 -194 -325 -17 -25 -35 -53 -41 -62 -24 -41 -107
-154 -256 -348 -143 -186 -447 -506 -674 -709 -192 -172 -538 -441 -652 -506
-16 -9 -55 -34 -88 -56 -33 -21 -67 -42 -75 -46 -8 -3 -29 -17 -46 -29 -16
-13 -46 -30 -65 -39 -37 -17 -54 -26 -112 -68 -22 -15 -44 -27 -48 -27 -12 0
-52 -19 -84 -40 -16 -11 -37 -23 -46 -26 -8 -3 -40 -18 -70 -34 -59 -31 -130
-66 -224 -110 -129 -60 -153 -70 -162 -70 -6 0 -30 -11 -54 -23 -24 -13 -62
-29 -84 -36 -22 -7 -54 -19 -72 -27 -17 -8 -36 -14 -41 -14 -6 0 -25 -8 -44
-17 -54 -27 -61 -29 -117 -43 -30 -7 -66 -19 -80 -26 -14 -8 -32 -14 -39 -14
-7 0 -20 -4 -30 -10 -9 -5 -42 -16 -72 -24 -30 -8 -86 -23 -125 -35 -116 -33
-486 -118 -545 -125 -30 -4 -89 -13 -130 -21 -140 -26 -295 -45 -410 -50 -63
-3 -132 -8 -152 -10 -21 -3 -38 -1 -38 4 0 5 -7 26 -16 47 -9 22 -16 41 -16
44 0 3 -3 10 -8 15 -4 6 -20 55 -35 110 -14 55 -31 105 -37 112 -6 7 -7 13 -3
13 4 0 2 7 -5 15 -7 8 -10 22 -6 30 3 8 1 15 -4 15 -6 0 -9 3 -8 8 1 4 -4 21
-11 37 -7 17 -19 66 -27 110 -8 44 -19 81 -24 83 -5 2 -6 10 -3 18 3 8 0 14
-7 14 -6 0 -8 5 -5 10 3 6 2 10 -4 10 -5 0 -14 24 -21 53 -19 89 -48 173 -78
229 -17 29 -33 71 -37 93 -4 22 -16 55 -27 72 -10 18 -17 37 -13 43 3 5 1 10
-5 10 -6 0 -10 6 -9 13 1 6 -10 38 -24 70 -15 32 -27 64 -27 72 0 7 -6 20 -13
27 -7 7 -19 29 -27 48 -15 37 -77 134 -132 208 -44 58 -219 223 -229 216 -5
-3 -9 0 -9 6 0 6 -4 8 -10 5 -5 -3 -10 -2 -10 3 0 9 -75 41 -145 62 -22 7 -45
16 -51 21 -6 5 -14 6 -17 2 -4 -3 -13 -1 -21 6 -10 8 -97 11 -308 11 -188 -1
-304 3 -322 10 -16 6 -59 15 -96 20 -81 12 -101 19 -170 61 -63 39 -110 107
-110 158 0 47 25 139 43 160 8 9 25 44 38 79 13 34 27 62 31 62 4 0 5 7 2 15
-4 8 -1 15 5 15 6 0 8 7 5 15 -4 8 -3 23 1 33 7 15 7 43 1 110 -3 28 -61 89
-102 107 -47 20 -98 76 -113 125 -21 71 -1 121 82 205 58 59 70 77 74 112 8
62 -2 88 -44 113 -27 16 -50 21 -92 19 -31 -1 -63 1 -71 4 -8 3 -34 11 -57 17
-66 17 -98 49 -96 97 2 37 49 175 62 180 3 2 5 33 5 70 -1 66 -3 69 -48 120
-48 53 -94 73 -133 58 -10 -3 -20 -6 -23 -6 -3 -1 -10 -5 -16 -10 -6 -5 -25
-5 -45 1 -18 6 -50 10 -70 10 -64 0 -136 30 -181 75 -35 35 -42 48 -43 83 -1
23 3 42 8 42 4 0 5 5 2 10 -3 6 -1 10 5 10 7 0 10 7 7 15 -4 8 -2 17 4 21 5 3
9 13 8 22 -2 10 5 34 14 56 9 21 17 42 17 47 0 5 5 9 10 9 6 0 10 9 10 20 0
11 5 20 11 20 5 0 7 5 4 10 -3 6 -2 10 3 10 5 0 22 26 38 58 15 31 30 59 34
62 3 3 17 32 30 65 13 33 34 76 45 95 29 46 215 398 215 406 0 3 6 20 14 37
24 53 27 130 7 163 -9 16 -30 60 -46 98 l-29 69 0 261 c0 210 3 273 16 321 9
33 20 102 24 153 3 51 11 95 15 98 5 3 6 10 3 16 -4 6 -1 14 5 18 7 4 16 38
22 76 5 38 15 85 23 104 7 19 17 54 21 77 4 24 11 45 15 48 5 3 7 12 3 20 -3
8 0 15 7 15 7 0 10 7 6 15 -3 8 -1 15 4 15 5 0 12 9 15 21 4 11 16 42 28 67
11 26 21 55 22 65 1 11 6 22 12 25 12 8 73 134 73 150 0 7 5 12 10 12 6 0 10
5 10 11 0 19 91 199 101 199 5 0 9 5 9 10 0 6 27 50 60 98 33 49 60 92 60 96
0 3 16 20 35 37 19 17 35 36 35 43 0 7 16 29 35 50 19 21 35 42 35 46 0 14
278 283 321 310 25 15 53 39 62 54 10 14 24 26 32 26 8 0 15 4 15 9 0 5 10 11
23 15 12 3 45 24 72 47 28 23 66 48 85 56 19 8 39 21 45 29 8 10 301 164 325
170 3 0 23 9 44 18 22 10 68 25 103 33 34 9 63 20 63 25 0 5 5 6 10 3 6 -4 17
-2 24 4 8 7 18 11 22 10 5 -1 16 0 24 3 8 3 50 16 93 29 42 12 77 25 77 29 0
4 13 5 30 2 16 -2 38 -1 47 3 10 5 24 7 31 6 6 -1 12 3 12 9 0 5 3 9 8 8 4 0
14 2 22 5 57 25 789 30 885 6z m-1545 -2808 c14 -10 32 -30 40 -44 13 -23 13
-31 -1 -69 -12 -35 -24 -47 -62 -67 -56 -28 -101 -23 -140 13 -48 44 -48 102
-1 150 47 46 112 53 164 17z"/>
<path d="M11619 4002 c-102 -66 -112 -207 -19 -285 30 -25 86 -47 123 -47 27
0 89 28 116 53 30 28 61 94 61 132 0 46 -34 109 -75 141 -30 22 -50 29 -99 32
-54 3 -66 0 -107 -26z"/>
<path d="M4510 3065 l0 -925 145 0 145 0 0 925 0 925 -145 0 -145 0 0 -925z"/>
<path d="M8300 3065 l0 -925 145 0 145 0 0 188 0 187 99 99 99 98 61 -88 c34
-49 121 -177 194 -284 l134 -195 177 -3 177 -2 -84 122 c-263 383 -457 672
-455 679 2 4 115 124 252 266 l250 258 -184 3 -183 2 -171 -177 c-93 -98 -214
-223 -268 -278 l-98 -100 0 538 0 537 -145 0 -145 0 0 -925z"/>
<path d="M9820 3065 l0 -925 145 0 145 0 0 90 0 90 66 -54 c137 -113 247 -151
414 -143 123 6 199 29 292 89 129 83 224 206 274 353 36 106 45 289 20 410
-56 279 -289 485 -579 511 -178 16 -340 -52 -447 -187 l-40 -51 0 371 0 371
-145 0 -145 0 0 -925z m751 165 c122 -23 226 -106 286 -228 38 -76 38 -77 38
-201 0 -120 -1 -129 -31 -192 -78 -165 -260 -262 -432 -230 -174 32 -294 163
-323 351 -36 232 106 459 312 499 62 12 89 12 150 1z"/>
<path d="M14370 3633 l0 -356 -62 60 c-120 114 -209 148 -378 147 -98 -1 -127
-5 -195 -28 -311 -107 -484 -392 -445 -735 21 -186 80 -311 202 -427 127 -120
259 -174 430 -174 163 0 281 44 386 143 l62 60 0 -91 0 -92 145 0 145 0 0 925
0 925 -145 0 -145 0 0 -357z m-235 -432 c102 -48 175 -133 216 -253 18 -53 20
-80 17 -168 -6 -138 -29 -199 -109 -284 -228 -244 -628 -110 -680 228 -14 86
1 198 36 273 31 69 124 166 189 198 107 53 227 55 331 6z"/>
<path d="M2720 3011 l0 -871 453 0 c273 0 477 4 513 11 164 29 275 90 348 192
170 238 103 543 -146 662 -40 19 -82 35 -93 35 -13 0 0 11 35 31 123 67 186
166 197 307 14 184 -76 351 -230 427 -141 68 -144 69 -634 73 l-443 3 0 -870z
m744 589 c121 -12 191 -47 224 -110 20 -38 23 -57 20 -121 -3 -64 -7 -81 -30
-111 -60 -78 -151 -98 -450 -98 l-208 0 0 225 0 225 178 0 c97 0 217 -5 266
-10z m194 -743 c59 -20 115 -64 139 -111 11 -21 17 -55 17 -102 -1 -101 -28
-149 -109 -189 l-60 -30 -312 -3 -313 -3 0 231 0 231 293 -3 c243 -3 301 -7
345 -21z"/>
<path d="M5670 3479 c-35 -5 -98 -21 -140 -35 -124 -42 -276 -133 -266 -160 4
-10 59 -89 112 -163 2 -2 50 20 106 48 123 62 221 85 325 78 167 -12 253 -96
253 -248 l0 -59 -235 0 c-263 0 -346 -11 -452 -60 -131 -60 -201 -159 -210
-298 -13 -182 69 -326 228 -406 94 -47 161 -59 294 -54 151 7 263 52 364 146
18 18 35 32 37 32 2 0 4 -36 4 -80 l0 -80 130 0 130 0 0 453 c0 258 -5 480
-10 517 -28 176 -150 304 -340 356 -70 19 -246 26 -330 13z m388 -832 c-5
-110 -29 -163 -100 -213 -74 -53 -131 -69 -243 -69 -89 0 -107 4 -158 28 -74
37 -100 74 -105 152 -3 50 0 65 20 94 58 85 113 99 387 100 l203 1 -4 -93z"/>
<path d="M7305 3481 c-125 -20 -225 -61 -331 -137 -118 -83 -194 -187 -241
-329 -22 -69 -26 -98 -27 -210 0 -145 14 -216 65 -321 82 -168 263 -307 455
-350 99 -22 290 -15 379 14 111 35 251 119 318 190 l28 30 -84 88 -84 88 -59
-49 c-148 -121 -330 -149 -490 -73 -77 36 -159 120 -201 206 -37 73 -38 80
-38 181 0 95 3 112 29 168 37 80 122 163 211 204 148 70 336 43 481 -67 24
-19 48 -34 53 -34 5 0 45 45 90 99 l81 99 -52 47 c-61 53 -187 118 -273 140
-71 19 -240 27 -310 16z"/>
<path d="M12945 3476 c-107 -27 -222 -105 -291 -198 l-44 -60 0 126 0 126
-145 0 -145 0 0 -665 0 -665 145 0 145 0 0 333 c0 300 2 342 20 411 49 192
164 296 347 313 l63 6 0 143 c0 164 7 155 -95 130z"/>
<path d="M11570 2805 l0 -665 145 0 145 0 0 665 0 665 -145 0 -145 0 0 -665z"/>
<path d="M5170 1441 c-131 -43 -199 -134 -200 -266 0 -53 6 -82 24 -121 73
-157 291 -204 421 -91 l37 33 -26 31 -27 32 -45 -28 c-24 -16 -60 -32 -79 -35
-70 -13 -157 30 -190 95 -24 45 -19 139 8 180 63 93 192 114 275 44 l29 -24
32 32 31 33 -27 26 c-47 43 -93 61 -168 64 -38 2 -81 0 -95 -5z"/>
<path d="M2680 1176 l0 -266 50 0 50 0 0 85 0 85 54 0 55 0 61 -85 61 -85 61
0 60 0 -38 53 c-21 28 -51 70 -68 91 -29 38 -29 40 -11 50 88 50 119 169 67
259 -32 54 -90 71 -254 75 l-148 4 0 -266z m311 145 c36 -45 18 -122 -34 -141
-16 -5 -63 -10 -103 -10 l-74 0 0 91 0 91 96 -4 c86 -3 98 -5 115 -27z"/>
<path d="M3870 1175 l0 -265 196 0 195 0 -3 43 -3 42 -142 3 -143 3 0 64 0 65
126 0 125 0 -3 43 -3 42 -122 3 -123 3 0 64 0 65 141 0 140 0 -3 43 -3 42
-187 3 -188 2 0 -265z"/>
<path d="M6200 1176 l0 -266 50 0 50 0 0 85 0 85 54 0 55 0 61 -85 61 -85 61
0 60 0 -38 53 c-21 28 -51 70 -68 91 -29 38 -29 40 -11 50 88 50 119 169 67
259 -32 54 -90 71 -254 75 l-148 4 0 -266z m311 145 c36 -45 18 -122 -34 -141
-16 -5 -63 -10 -103 -10 l-74 0 0 91 0 91 96 -4 c86 -3 98 -5 115 -27z"/>
<path d="M7382 1253 c4 -205 11 -234 64 -286 113 -113 315 -74 371 71 15 39
18 76 18 222 l0 175 -47 3 -46 3 -4 -183 c-3 -172 -4 -185 -26 -215 -47 -66
-157 -66 -206 0 -19 26 -21 44 -24 213 l-3 184 -51 0 -50 0 4 -187z"/>
<path d="M8600 1176 l0 -266 50 0 50 0 -2 263 -3 262 -47 3 -48 3 0 -265z"/>
<path d="M9430 1395 l0 -45 80 0 80 0 0 -220 0 -220 50 0 50 0 0 220 0 220 75
0 75 0 0 45 0 45 -205 0 -205 0 0 -45z"/>
<path d="M10580 1175 l0 -265 50 0 50 0 1 193 0 192 87 -172 c116 -231 108
-231 224 0 l87 172 0 -192 1 -193 50 0 50 0 0 265 0 265 -71 0 -71 0 -76 -160
c-42 -88 -79 -160 -82 -160 -3 0 -40 72 -82 160 l-76 160 -71 0 -71 0 0 -265z"/>
<path d="M11960 1175 l0 -265 196 0 195 0 -3 43 -3 42 -142 3 -143 3 0 64 0
65 126 0 125 0 -3 43 -3 42 -122 3 -123 3 0 64 0 65 141 0 140 0 -3 43 -3 42
-187 3 -188 2 0 -265z"/>
<path d="M13090 1175 l0 -265 50 0 50 0 2 180 3 180 140 -180 140 -180 52 0
53 0 0 266 0 265 -47 -3 -48 -3 -5 -186 -5 -185 -145 187 -145 188 -47 0 -48
1 0 -265z"/>
<path d="M14310 1395 l0 -45 80 0 80 0 0 -220 0 -220 50 0 50 0 0 220 0 220
75 0 75 0 0 45 0 45 -205 0 -205 0 0 -45z"/>
</g>
</svg>
