<svg width="50" height="50" viewBox="0 0 50 50" fill="none" xmlns="http://www.w3.org/2000/svg">
<circle cx="25" cy="25" r="25" fill="#653E2F"/>
<path fill-rule="evenodd" clip-rule="evenodd" d="M21.7863 21.2113H26.4287V23.5238C27.0975 22.1938 28.8125 20.9988 31.3888 20.9988C36.3275 20.9988 37.5 23.6463 37.5 28.5037V37.5H32.5V29.61C32.5 26.8438 31.8313 25.2838 30.1287 25.2838C27.7675 25.2838 26.7863 26.965 26.7863 29.6087V37.5H21.7863V21.2113ZM13.2125 37.2875H18.2125V20.9988H13.2125V37.2875ZM18.9288 15.6875C18.9289 16.1066 18.8458 16.5215 18.6842 16.9082C18.5226 17.2949 18.2858 17.6456 17.9875 17.94C17.383 18.5408 16.5648 18.8771 15.7125 18.875C14.8617 18.8744 14.0454 18.539 13.44 17.9413C13.1428 17.6459 12.9067 17.2948 12.7454 16.908C12.5841 16.5213 12.5007 16.1065 12.5 15.6875C12.5 14.8413 12.8375 14.0313 13.4413 13.4338C14.0461 12.8352 14.8628 12.4996 15.7138 12.5C16.5663 12.5 17.3837 12.8363 17.9875 13.4338C18.59 14.0313 18.9288 14.8413 18.9288 15.6875Z" fill="#FBA92C"/>
</svg>
